<?xml version="1.0" encoding="utf-8"?>
<!-- Generator: Adobe Illustrator 16.0.0, SVG Export Plug-In . SVG Version: 6.00 Build 0)  -->
<!DOCTYPE svg PUBLIC "-//W3C//DTD SVG 1.1//EN" "http://www.w3.org/Graphics/SVG/1.1/DTD/svg11.dtd">
<svg version="1.1" id="Layer_1" xmlns="http://www.w3.org/2000/svg" xmlns:xlink="http://www.w3.org/1999/xlink" x="0px" y="0px"
	 width="310.527px" height="157.895px" viewBox="0 0 310.527 157.895" enable-background="new 0 0 310.527 157.895"
	 xml:space="preserve">
<polygon fill="#2E3192" points="11.964,45.128 75.134,8.656 138.305,45.128 138.305,118.072 75.134,154.544 11.964,118.072 "/>
<g>
	<path fill="#2E3192" d="M161.242,57.712c-1.517-3.7-7.67-2.845-7.67,0.777v9.466c0,4.322,8.06,4.283,8.06,0v-1.013h-4.4V61.1
		h11.101v6.855c0,6.347-5.298,9.541-10.828,9.541c-5.453,0-10.904-3.194-10.904-9.541v-9.466c0-6.23,5.451-9.347,10.904-9.347
		c3.585,0,7.673,1.479,9.581,5.882L161.242,57.712z"/>
	<path fill="#2E3192" d="M171.56,49.532h7.01v20.682h11.217v6.894H171.56V49.532z"/>
	<path fill="#2E3192" d="M191.653,58.607c0-6.349,5.686-9.465,11.41-9.465c5.727,0,11.451,3.155,11.451,9.465v9.425
		c0,6.309-5.688,9.464-11.41,9.464c-5.727,0-11.451-3.155-11.451-9.464V58.607z M198.625,68.032c0,2.024,2.258,2.998,4.479,2.998
		c2.219,0,4.438-1.012,4.438-2.998v-9.425c0-2.143-2.298-3.116-4.557-3.116c-2.182,0-4.361,1.09-4.361,3.116V68.032z"/>
	<path fill="#2E3192" d="M235.385,62.424c3.778,1.908,4.245,5.453,3.896,7.556c-0.701,4.44-3.701,7.128-9.815,7.128h-11.256V49.532
		h11.062c5.258,0,9.114,3.155,8.957,8.412C238.19,59.191,237.373,61.412,235.385,62.424z M229.271,60.32
		c3.388,0,3.504-4.908,0-4.908h-4.051v4.908H229.271z M229.271,70.992c4.206,0,4.129-5.647,0-5.647h-4.051v5.647H229.271z"/>
	<path fill="#2E3192" d="M265.371,77.107h-7.477l-1.793-5.53h-7.359l-1.714,5.53h-7.478l9.619-27.575h6.348L265.371,77.107z
		 M254.427,65.384l-1.907-8.062h-0.196l-2.024,8.062H254.427z"/>
	<path fill="#2E3192" d="M267.199,49.532h7.009v20.682h11.218v6.894h-18.227V49.532z"/>
</g>
<g>
	<path fill="#ED1C24" d="M162.315,91.703v24.256h-8.146V91.703h-8.46v-7.65h25.067v7.65H162.315z"/>
	<path fill="#ED1C24" d="M181.98,115.959h-8.055V84.098h8.055V115.959z"/>
	<path fill="#ED1C24" d="M195.166,96.608h12.915v6.975h-12.915v4.771h14.041v7.605h-22.188V84.098h22.188v7.56h-14.041V96.608z"/>
	<path fill="#ED1C24" d="M227.069,106.733h-14.04v-7.649h14.04V106.733z"/>
	<path fill="#ED1C24" d="M239.625,105.293c0,5.131,9.089,5.131,9.135,0V84.098h8.146v21.195c-0.047,14.941-25.473,14.941-25.428,0
		V84.098h8.147V105.293z"/>
	<path fill="#ED1C24" d="M261.673,84.098h12.736c7.785,0,11.656,5.624,11.656,11.251c0,5.671-3.916,11.294-11.612,11.294h-4.726
		v9.316h-8.055V84.098z M274.41,99.488c4.86,0.045,4.86-7.92,0-7.875h-4.682v7.875H274.41z"/>
</g>
<g>
	<path fill="#FFFFFF" d="M87.741,120.038l-5.494-0.039l10.423,14.502l9.148-14.39l-5.547-0.028v-0.011l-0.214-16.579
		c0,0,0.157-10.58-13.663-10.65c-3.431-0.019-5.883,0.752-7.646,1.881c-1.793-1.146-4.27-1.942-7.695-1.961
		c-13.818-0.07-13.392,10.512-13.392,10.512l0.217,16.579v0.011l-5.552-0.027l9.527,14.487l10.049-14.4l-5.494-0.016v-0.014
		l-0.189-14.565c-0.024-1.959,1.602-3.519,4.51-3.505c2.357,0.013,3.235,1.578,3.555,2.529l0.371,28.595l-5.323-0.025l9.522,14.485
		l10.052-14.398l-5.073-0.016l-0.373-28.591c0.294-0.953,1.135-2.508,3.488-2.496c2.91,0.016,4.58,1.593,4.606,3.552l0.188,14.567
		V120.038z"/>
	<path fill="#FFFFFF" d="M61.412,42.871l5.494,0.039L56.481,28.406l-9.148,14.392l5.548,0.029l0.001,0.01l0.214,16.58
		c0,0-0.155,10.58,13.664,10.649c3.427,0.018,5.881-0.753,7.645-1.881c1.794,1.146,4.266,1.942,7.692,1.96
		c13.821,0.07,13.392-10.512,13.392-10.512l-0.213-16.58v-0.01l5.547,0.028l-9.523-14.486L81.248,42.984l5.496,0.017v0.012
		l0.189,14.564c0.025,1.963-1.603,3.521-4.509,3.507c-2.359-0.014-3.239-1.576-3.557-2.531l-0.369-28.594l5.32,0.027l-9.52-14.484
		L64.248,29.899l5.074,0.016l0.368,28.591c-0.294,0.952-1.131,2.505-3.488,2.494c-2.907-0.015-4.575-1.592-4.603-3.553
		l-0.188-14.564V42.871z"/>
	<path fill="#FFFFFF" d="M106.355,69.141l0.062,5.554l14.166-10.272l-14.41-9.508l0.072,5.606h-0.009l-16.405-0.086
		c0,0-10.475-0.349-10.293,13.619c0.044,3.463,0.853,5.958,2,7.76c-1.102,1.794-1.843,4.278-1.802,7.744
		c0.184,13.964,10.648,13.725,10.648,13.725l16.405,0.086l0.01-0.002l0.075,5.61l14.162-9.365l-14.434-10.423l0.084,5.556h-0.009
		l-14.413-0.071c-1.943-0.014-3.515-1.687-3.553-4.625c-0.03-2.383,1.502-3.242,2.438-3.545l28.29,0.144l0.072,5.38l14.166-9.36
		l-14.433-10.421l0.075,5.125L91.03,77.227c-0.945-0.314-2.496-1.19-2.528-3.572c-0.038-2.938,1.491-4.598,3.432-4.587l14.412,0.073
		H106.355z"/>
	<path fill="#FFFFFF" d="M44.177,94.421l-0.06-5.552L29.952,99.142l14.409,9.509l-0.07-5.608l0.007,0.003l16.407,0.082
		c0,0,10.474,0.349,10.291-13.619c-0.045-3.461-0.854-5.953-1.999-7.759c1.101-1.792,1.845-4.278,1.799-7.739
		c-0.181-13.968-10.645-13.727-10.645-13.727l-16.407-0.086l-0.012,0.002l-0.07-5.608l-14.166,9.365l14.434,10.417l-0.083-5.554
		h0.012l14.413,0.075c1.938,0.009,3.513,1.683,3.551,4.621c0.029,2.384-1.5,3.243-2.439,3.547l-28.291-0.144l-0.07-5.383
		l-14.166,9.365L31.288,91.32l-0.077-5.128l28.293,0.145c0.944,0.314,2.499,1.189,2.531,3.572c0.036,2.938-1.492,4.6-3.432,4.586
		l-14.415-0.074H44.177z"/>
</g>
</svg>
